<?xml version="1.0" encoding="utf-8"?>
<!-- Generator: Adobe Illustrator 24.0.1, SVG Export Plug-In . SVG Version: 6.00 Build 0)  -->
<svg version="1.1" id="Layer_1" xmlns="http://www.w3.org/2000/svg" xmlns:xlink="http://www.w3.org/1999/xlink" x="0px" y="0px"
	 viewBox="0 0 900 484" style="enable-background:new 0 0 900 484;" xml:space="preserve">
<style type="text/css">
	.st0{fill:#E7ECF3;}
</style>
<g>
	<path class="st0" d="M450,484C319.8,479.5,274,458.9,216,432.8c-24.4-11-52-23.4-89-35.7C89,384.4,46.3,378.3,0,378.9l0-2.5
		c46.5-0.6,89.5,5.5,127.8,18.3c37.1,12.4,64.8,24.8,89.2,35.8c57.8,26,103.4,46.5,233.1,51c129.6-4.5,175.2-25,233-51
		c24.4-11,52.1-23.4,89.2-35.8c38.3-12.8,81.2-18.9,127.8-18.3l0,2.5c-46.2-0.6-88.9,5.5-126.9,18.2c-37,12.4-64.6,24.8-89,35.7
		C626,458.9,580.2,479.5,450,484z M450,463.1C319.8,458.6,274,438,216,411.9c-24.4-11-52-23.4-89-35.7C89,363.5,46.3,357.4,0,358
		l0-2.5c46.5-0.6,89.5,5.5,127.8,18.3c37.1,12.4,64.8,24.8,89.2,35.8c57.8,26,103.4,46.5,233.1,51c129.6-4.5,175.2-25,233-51
		c24.4-11,52.1-23.4,89.2-35.8c38.3-12.8,81.2-18.9,127.8-18.3l0,2.5c-46.2-0.6-88.9,5.5-126.9,18.2c-37,12.4-64.6,24.8-89,35.7
		C626,438,580.2,458.6,450,463.1z M450,442.2C319.8,437.7,274,417.1,216,391c-24.4-11-52-23.4-89-35.7C89,342.6,46.3,336.4,0,337.1
		l0-2.5c46.5-0.6,89.5,5.5,127.8,18.3c37.1,12.4,64.8,24.8,89.2,35.8c57.8,26,103.4,46.5,233.1,51c129.6-4.5,175.2-25,233-51
		c24.4-11,52.1-23.4,89.2-35.8c38.3-12.8,81.2-18.9,127.8-18.3l0,2.5c-46.2-0.6-88.9,5.5-126.9,18.2c-37,12.4-64.6,24.8-89,35.7
		C626,417.1,580.2,437.7,450,442.2z M450,421.3C319.8,416.8,274,396.2,216,370.1c-24.4-11-52-23.4-89-35.7
		C89,321.6,46.3,315.5,0,316.2l0-2.5c46.5-0.6,89.5,5.5,127.8,18.3c37.1,12.4,64.8,24.8,89.2,35.8c57.8,26,103.4,46.5,233.1,51
		c129.6-4.5,175.2-25,233-51c24.4-11,52.1-23.4,89.2-35.8c38.3-12.8,81.2-18.9,127.8-18.3l0,2.5c-46.2-0.6-88.9,5.5-126.9,18.2
		c-37,12.4-64.6,24.8-89,35.7C626,396.2,580.2,416.8,450,421.3z M450,400.4C319.8,395.9,274,375.2,216,349.2
		c-24.4-11-52-23.4-89-35.7C89,300.7,46.3,294.6,0,295.3l0-2.5c46.5-0.6,89.5,5.5,127.8,18.3c37.1,12.4,64.8,24.8,89.2,35.8
		c57.8,26,103.4,46.5,233.1,51c129.6-4.5,175.2-25,233-51c24.4-11,52.1-23.4,89.2-35.8c38.3-12.8,81.2-18.9,127.8-18.3l0,2.5
		c-46.2-0.6-88.9,5.5-126.9,18.2c-37,12.4-64.6,24.8-89,35.7C626,375.2,580.2,395.9,450,400.4z M450,379.5
		C319.8,374.9,274,354.3,216,328.2c-24.4-11-52-23.4-89-35.7C89,279.8,46.3,273.7,0,274.4l0-2.5c46.5-0.6,89.5,5.5,127.8,18.3
		c37.1,12.4,64.8,24.8,89.2,35.8c57.8,26,103.4,46.5,233.1,51c129.6-4.5,175.2-25,233-51c24.4-11,52.1-23.4,89.2-35.8
		c38.3-12.8,81.2-18.9,127.8-18.3l0,2.5c-46.2-0.6-88.9,5.5-126.9,18.2c-37,12.4-64.6,24.8-89,35.7C626,354.3,580.2,374.9,450,379.5
		z M450,358.5C319.8,354,274,333.4,216,307.3c-24.4-11-52-23.4-89-35.7C89,258.9,46.3,252.8,0,253.4l0-2.5
		c46.5-0.6,89.5,5.5,127.8,18.3c37.1,12.4,64.8,24.8,89.2,35.8c57.8,26,103.4,46.5,233.1,51c129.6-4.5,175.2-25,233-51
		c24.4-11,52.1-23.4,89.2-35.8c38.3-12.8,81.2-18.9,127.8-18.3l0,2.5c-46.2-0.6-88.9,5.5-126.9,18.2c-37,12.4-64.6,24.8-89,35.7
		C626,333.4,580.2,354,450,358.5z M450,337.6C319.8,333.1,274,312.5,216,286.4c-24.4-11-52-23.4-89-35.7C89,238,46.3,231.9,0,232.5
		l0-2.5c46.5-0.6,89.5,5.5,127.8,18.3c37.1,12.4,64.8,24.8,89.2,35.8c57.8,26,103.4,46.5,233.1,51c129.6-4.5,175.2-25,233-51
		c24.4-11,52.1-23.4,89.2-35.8c38.3-12.8,81.2-18.9,127.8-18.3l0,2.5c-46.2-0.6-88.9,5.5-126.9,18.2c-37,12.4-64.6,24.8-89,35.7
		C626,312.5,580.2,333.1,450,337.6z M450,316.7C319.8,312.2,274,291.6,216,265.5c-24.4-11-52-23.4-89-35.7
		C89,217.1,46.3,211,0,211.6l0-2.5c46.5-0.6,89.5,5.5,127.8,18.3c37.1,12.4,64.8,24.8,89.2,35.8c57.8,26,103.4,46.5,233.1,51
		c129.6-4.5,175.2-25,233-51c24.4-11,52.1-23.4,89.2-35.8c38.3-12.8,81.2-18.9,127.8-18.3l0,2.5c-46.2-0.6-88.9,5.5-126.9,18.2
		c-37,12.4-64.6,24.8-89,35.7C626,291.6,580.2,312.2,450,316.7z M450,295.8C319.8,291.3,274,270.7,216,244.6
		c-24.4-11-52-23.4-89-35.7C89,196.2,46.3,190.1,0,190.7l0-2.5c46.5-0.6,89.5,5.5,127.8,18.3c37.1,12.4,64.8,24.8,89.2,35.8
		c57.8,26,103.4,46.5,233.1,51c129.6-4.5,175.2-25,233-51c24.4-11,52.1-23.4,89.2-35.8c38.3-12.8,81.2-18.9,127.8-18.3l0,2.5
		c-46.2-0.6-88.9,5.5-126.9,18.2c-37,12.4-64.6,24.8-89,35.7C626,270.7,580.2,291.3,450,295.8z M450,274.9
		C319.8,270.4,274,249.8,216,223.7c-24.4-11-52-23.4-89-35.7C89,175.3,46.3,169.2,0,169.8l0-2.5c46.5-0.6,89.5,5.5,127.8,18.3
		c37.1,12.4,64.8,24.8,89.2,35.8c57.8,26,103.4,46.5,233.1,51c129.6-4.5,175.2-25,233-51c24.4-11,52.1-23.4,89.2-35.8
		c38.3-12.8,81.2-18.9,127.8-18.3l0,2.5c-46.2-0.6-88.9,5.5-126.9,18.2c-37,12.4-64.6,24.8-89,35.7C626,249.8,580.2,270.4,450,274.9
		z M450,254C319.8,249.5,274,228.9,216,202.8c-24.4-11-52-23.4-89-35.7C89,154.4,46.3,148.3,0,148.9l0-2.5
		c46.5-0.6,89.5,5.5,127.8,18.3c37.1,12.4,64.8,24.8,89.2,35.8c57.8,26,103.4,46.5,233.1,51c129.6-4.5,175.2-25,233-51
		c24.4-11,52.1-23.4,89.2-35.8c38.3-12.8,81.2-18.9,127.8-18.3l0,2.5c-46.2-0.6-88.9,5.5-126.9,18.2c-37,12.4-64.6,24.8-89,35.7
		C626,228.9,580.2,249.5,450,254z M450,233.1C319.8,228.6,274,208,216,181.9c-24.4-11-52-23.4-89-35.7C89,133.5,46.3,127.4,0,128
		l0-2.5c46.5-0.6,89.5,5.5,127.8,18.3c37.1,12.4,64.8,24.8,89.2,35.8c57.8,26,103.4,46.5,233.1,51c129.6-4.5,175.2-25,233-51
		c24.4-11,52.1-23.4,89.2-35.8c38.3-12.8,81.2-18.9,127.8-18.3l0,2.5c-46.2-0.6-88.9,5.5-126.9,18.2c-37,12.4-64.6,24.8-89,35.7
		C626,208,580.2,228.6,450,233.1z M450,212.2C319.8,207.7,274,187.1,216,161c-24.4-11-52-23.4-89-35.7C89,112.6,46.3,106.4,0,107.1
		l0-2.5c46.5-0.6,89.5,5.5,127.8,18.3c37.1,12.4,64.8,24.8,89.2,35.8c57.8,26,103.4,46.5,233.1,51c129.6-4.5,175.2-25,233-51
		c24.4-11,52.1-23.4,89.2-35.8c38.3-12.8,81.2-18.9,127.8-18.3l0,2.5c-46.2-0.6-88.9,5.5-126.9,18.2c-37,12.4-64.6,24.8-89,35.7
		C626,187.1,580.2,207.7,450,212.2z M450,191.3C319.8,186.8,274,166.2,216,140.1c-24.4-11-52-23.4-89-35.7C89,91.6,46.3,85.5,0,86.2
		l0-2.5C46.5,83,89.5,89.2,127.8,102c37.1,12.4,64.8,24.8,89.2,35.8c57.8,26,103.4,46.5,233.1,51c129.6-4.5,175.2-25,233-51
		c24.4-11,52.1-23.4,89.2-35.8C810.5,89.2,853.5,83,900,83.7l0,2.5c-46.2-0.6-88.9,5.5-126.9,18.2c-37,12.4-64.6,24.8-89,35.7
		C626,166.2,580.2,186.8,450,191.3z M450,170.4C319.8,165.9,274,145.2,216,119.2c-24.4-11-52-23.4-89-35.7C89,70.7,46.3,64.6,0,65.3
		l0-2.5c46.5-0.6,89.5,5.5,127.8,18.3c37.1,12.4,64.8,24.8,89.2,35.8c57.8,26,103.4,46.5,233.1,51c129.6-4.5,175.2-25,233-51
		c24.4-11,52.1-23.4,89.2-35.8c38.3-12.8,81.2-18.9,127.8-18.3l0,2.5C853.7,64.6,811,70.7,773,83.4c-37,12.4-64.6,24.8-89,35.7
		C626,145.2,580.2,165.9,450,170.4z M450,149.5C319.8,144.9,274,124.3,216,98.2c-24.4-11-52-23.4-89-35.7C89,49.8,46.3,43.7,0,44.4
		l0-2.5c46.5-0.6,89.5,5.5,127.8,18.3C164.9,72.5,192.6,85,217,96c57.8,26,103.4,46.5,233.1,51c129.6-4.5,175.2-25,233-51
		c24.4-11,52.1-23.4,89.2-35.8c38.3-12.8,81.2-18.9,127.8-18.3l0,2.5C853.7,43.7,811,49.8,773,62.5c-37,12.4-64.6,24.8-89,35.7
		C626,124.3,580.2,144.9,450,149.5z M450,128.5C319.8,124,274,103.4,216,77.3c-24.4-11-52-23.4-89-35.7C89,28.9,46.3,22.8,0,23.4
		L0,21c46.5-0.6,89.5,5.5,127.8,18.3c37.1,12.4,64.8,24.8,89.2,35.8c57.8,26,103.4,46.5,233.1,51c129.6-4.5,175.2-25,233-51
		c24.4-11,52.1-23.4,89.2-35.8C810.5,26.5,853.5,20.3,900,21l0,2.5C853.7,22.8,811,28.9,773,41.6c-37,12.4-64.6,24.8-89,35.7
		C626,103.4,580.2,124,450,128.5z M450,107.6C319.8,103.1,274,82.5,216,56.4c-24.4-11-52-23.4-89-35.7C89,8,46.3,1.9,0,2.5L0,0
		c46.5-0.6,89.5,5.5,127.8,18.3c37.1,12.4,64.8,24.8,89.2,35.8c57.8,26,103.4,46.5,233.1,51c129.6-4.5,175.2-25,233-51
		c24.4-11,52.1-23.4,89.2-35.8C810.5,5.6,853.5-0.6,900,0l0,2.5C853.7,1.9,811,8,773,20.7c-37,12.4-64.6,24.8-89,35.7
		C626,82.5,580.2,103.1,450,107.6z"/>
</g>
</svg>
